/* XPM */
static char *_01d01e5aea740ae9217a9dfe69c8b139rNQ8QPPNKh7eD8L[] = {
/* columns rows colors chars-per-pixel */
"33 32 9 1 ",
"  c None",
". c #1E1208",
"X c #3D2715",
"o c #56381E",
"O c #6C4C31",
"+ c #8F5C10",
"@ c #DB8D18",
"# c #F9A31B",
"$ c #FFD541",
/* pixels */
"                                 ",
"                                 ",
" .....                     ..... ",
".####.......................####.",
"####XooooOOOOOOOOoOOoOOOooooX####",
"$$$XooOOOOOoOooOOOOOOOOOOOOOoX$$$",
"$$$XooooOOOOOOOOOOOOOooOoOOooX$$$",
"$$XOOOOOOOOOOOOOOOOOOOOOOOOOOOX$$",
"$#XoooOOOOOOOOOOoooOOOOOOOOOooX#$",
"##XoOOOOOOOOOOOOOOOOOOOOOOOOOOX##",
"##XooOOOOooOOOOOOOOOOOOooOOOooX##",
"##XoooOOOOOOOooOOOooOoOOOOOOOoX##",
"##XoOOOOOOOOOOOOOOOOOOOOOOOOOoX##",
"##XXXoooOOOOOOOOOOOOOOOooOOOOoX##",
"##XooOOOOoooOOOOOOOOOOOOOOOoooX##",
"#@XXooOOOOOOOoooooooOOooOoooXXX@#",
"#@Xooooooooooo$$$$$ooooooooooXX@#",
"@@@XXoooooooo$$###$$ooooooooXX@@@",
"@@@@@@@@@@@@@$#...#$@@@@@@@@@@@@@",
"++XXXXXXXXXXX$@@.@@$XXXXXXXXXXX++",
"++XXooooooooX$$@@@$$XooooooooXX++",
"$$XooOOOOOOOoX$$$$$XoOOoooOOooX$$",
"$#XoOOOOOOooooXXXXXoOOOOOOOOOoX#$",
"##XooooOOOOOOOoooooOOoooOOOOooX##",
"##XoooOOOOooOOOOOOOOOOOOOoooooX##",
"##XXXooooooooooooooooooooooooXX##",
"@#XXXXXoooXXooXXXXXXXooXXXXXXXX#@",
"@@@XXXXXXXXXXXXXXXXXXXXXXXXXXX@@@",
"@@@@.........................@@@@",
".....                       .....",
"                                 ",
"                                 "
};
