/* XPM */
static char *_253654a47fd44a08840f6b2717d7cf8GDPV3TBm3QDvDJhp[] = {
/* columns rows colors chars-per-pixel */
"32 32 12 1 ",
"  c None",
". c #1E1208",
"X c #1D1917",
"o c #3D2715",
"O c #252220",
"+ c #56381E",
"@ c #6C4C31",
"# c #A3673F",
"$ c #BB7547",
"% c #BF8F57",
"& c #DBA463",
"* c #F4D29C",
/* pixels */
"                                ",
"           ........             ",
"          .&&&&&&&&.            ",
"         .&&%%%%%%&&.           ",
"         .&%&&&&&&%&.           ",
"         .&%&&&&&&%&.           ",
"         .&&%%%%%%&&.           ",
"         .oo&&&&&&oo.           ",
"         .++oooooo++.           ",
"    ......................      ",
"   .**********************.     ",
"  .*&&&&&&&&&&&&&&&&&&&&&&*.    ",
" .*&&####################&&*.   ",
" .&&#$$$$$$$$$$$$$$$$$$$$#&&*.  ",
" .&$######$$$$########$$$##&&*. ",
" .&$$$$$$$$$$$$$$$$$$$#####&&&. ",
" .&$####$$$$$$#####$$$$$$$#&&.  ",
" .&&$$$$######$$$$$$$#####&&.   ",
"  .&&##$$$$$$$$$$$$$$$$$$&&.    ",
"   .&&&&&&&&&&&&&&&&&&&&&&.     ",
"    ......................      ",
"         .oooooooooo.           ",
"         .o+o+o++o+o.           ",
"         .+@++++++@+.           ",
"         .+@+@@@+@@+.           ",
"         .+@@+@@+@++.           ",
"         .+@@+@@+@++.           ",
"         .++@+@@+@++.           ",
"          .OO+.X..Oo            ",
"                                ",
"                                ",
"                                "
};
