/* XPM */
static char *fd5c6aea12c3412ae7c79139134af829FrGFJ9PllI2E3Btc[] = {
/* columns rows colors chars-per-pixel */
"32 32 12 1 ",
"  c None",
". c #1A1517",
"X c #2E2725",
"o c #423934",
"O c #5A4E44",
"+ c #796655",
"@ c #A08662",
"# c #22BBD2",
"$ c #C7B08B",
"% c #E4D2AA",
"& c #A6FCDB",
"* c white",
/* pixels */
"                                ",
"                                ",
"            ..........          ",
"           .+%*%%**@@@..        ",
"          .@%%%**%%%%%%%.       ",
"         .%$%$$$$$%%%$$%%.      ",
"        .$$$$%%%%%%%%$$$$.      ",
"       .+@@$$$$$$$$$$$$o+.      ",
"      .@@@@@+$$$$OOO+%+o%.      ",
"      .++++OOOoOOO%%%%+OOo.     ",
"     .@++++++@OoooO%%@@+oo.     ",
"     .%OOOO%%%+OoO@@@@@+ooO.    ",
"    .%@@@%%%%@%@oO+$$$$o@oO.    ",
"    .%%**%%**%%$@O@$$$$%%@@@.   ",
"    .%%%%**%%$$$+@@%%%%%%%%@.   ",
"    .@$$$$$$$$$$+@%***%$*$%@.   ",
"   .@%$$$$$$$$@+%%%%%**%%$$@.   ",
"   .@@$@@@@$@@Oo%$$$$$$$$$$@@.  ",
"   .@++$$$$@%@Oo@$$$@@OOOo++O.  ",
"  &.+@@@@OOoooo+++O%%%%OO+++O.& ",
" &&.+++@+OoOOOO+@@OOOO++++++O.& ",
" &&.o@@+++@@OO@+@++ooOOoooOOO.&&",
" #&.oO++++++@@+Oo+++++ooOOOOO.&&",
"  #&.OOoo++ooOOoo+++ooOOOOoo.&&#",
"  #&&&OOOOOOOOoXXoo++OOOOooo&## ",
"   ##&&&ooooo&&&&oo&&ooooo&&#   ",
"     ##&&&&&&####&&##&&&&&&#    ",
"       ######    ##  ######     ",
"                                ",
"                                ",
"                                ",
"                                "
};
